<svg width="24" height="24" viewBox="0 0 24 24" fill="none" xmlns="http://www.w3.org/2000/svg">
<path d="M11.1246 12.005H15.3024" stroke="#323232" stroke-width="1.5" stroke-linecap="round" stroke-linejoin="round"/>
<path d="M11.1246 15.9967L17.1271 16.0017" stroke="#323232" stroke-width="1.5" stroke-linecap="round" stroke-linejoin="round"/>
<rect x="2.99625" y="2.99625" width="18.0075" height="18.0075" rx="2" stroke="#323232" stroke-width="1.5" stroke-linecap="round" stroke-linejoin="round"/>
<path d="M11.1246 7.99331H17.1271" stroke="#323232" stroke-width="1.5" stroke-linecap="round" stroke-linejoin="round"/>
<path d="M7.12195 7.74822C6.98395 7.74877 6.87248 7.86099 6.87285 7.99899C6.87321 8.13698 6.98528 8.24861 7.12328 8.24842C7.26128 8.24824 7.37305 8.13632 7.37305 7.99832C7.37332 7.93173 7.34692 7.86781 7.29974 7.82082C7.25256 7.77383 7.18853 7.74768 7.12195 7.74822" stroke="#323232" stroke-width="1.5" stroke-linecap="round" stroke-linejoin="round"/>
<path d="M7.12195 11.7499C6.98395 11.7504 6.87248 11.8627 6.87285 12.0007C6.87321 12.1387 6.98528 12.2503 7.12328 12.2501C7.26128 12.2499 7.37305 12.138 7.37305 12C7.37332 11.9334 7.34692 11.8695 7.29974 11.8225C7.25256 11.7755 7.18853 11.7494 7.12195 11.7499" stroke="#323232" stroke-width="1.5" stroke-linecap="round" stroke-linejoin="round"/>
<path d="M7.12195 15.7515C6.98395 15.7521 6.87248 15.8643 6.87285 16.0023C6.87321 16.1403 6.98528 16.2519 7.12328 16.2517C7.26128 16.2516 7.37305 16.1396 7.37305 16.0016C7.37332 15.9351 7.34692 15.8711 7.29974 15.8241C7.25256 15.7772 7.18853 15.751 7.12195 15.7515" stroke="#323232" stroke-width="1.5" stroke-linecap="round" stroke-linejoin="round"/>
</svg>
