<svg width="24" height="24" viewBox="0 0 24 24" fill="none" xmlns="http://www.w3.org/2000/svg">
<path fill-rule="evenodd" clip-rule="evenodd" d="M18.204 5.76199C16.558 4.11499 14.369 3.20699 12.037 3.20599C7.23 3.20599 3.319 7.11499 3.318 11.92C3.316 13.449 3.717 14.952 4.481 16.277L3.244 20.793L7.866 19.581C9.145 20.277 10.577 20.642 12.033 20.642H12.037C16.842 20.642 20.753 16.732 20.755 11.927C20.756 9.59899 19.85 7.40999 18.204 5.76199Z" stroke="#F0F5F2" stroke-width="1.5" stroke-linecap="round" stroke-linejoin="round"/>
<path d="M13.095 13.56L13.501 13.157C13.874 12.787 14.464 12.74 14.894 13.042C15.31 13.334 15.686 13.596 16.036 13.84C16.592 14.226 16.659 15.018 16.18 15.496L15.821 15.855" stroke="#F0F5F2" stroke-width="1.5" stroke-linecap="round" stroke-linejoin="round"/>
<path d="M8.145 8.17899L8.504 7.81999C8.982 7.34199 9.774 7.40899 10.16 7.96399C10.403 8.31399 10.665 8.68999 10.958 9.10599C11.26 9.53599 11.214 10.126 10.843 10.499L10.44 10.905" stroke="#F0F5F2" stroke-width="1.5" stroke-linecap="round" stroke-linejoin="round"/>
<path d="M15.821 15.855C14.34 17.329 11.851 16.077 9.886 14.111" stroke="#F0F5F2" stroke-width="1.5" stroke-linecap="round" stroke-linejoin="round"/>
<path d="M9.88801 14.114C7.92301 12.148 6.67101 9.65999 8.14501 8.17899" stroke="#F0F5F2" stroke-width="1.5" stroke-linecap="round" stroke-linejoin="round"/>
<path d="M10.44 10.905C10.759 11.408 11.168 11.906 11.63 12.368L11.632 12.37C12.094 12.832 12.592 13.241 13.095 13.56" stroke="#F0F5F2" stroke-width="1.5" stroke-linecap="round" stroke-linejoin="round"/>
</svg>
